<svg style="position: absolute; width: 0; height: 0; overflow: hidden;" version="1.1" xmlns="http://www.w3.org/2000/svg" xmlns:xlink="http://www.w3.org/1999/xlink">
<defs>
<symbol id="weibo-box" viewBox="0 0 32 32">
<title>weibo-box</title>
<path d="M14.176 20.17c-0.15 0.278-0.48 0.41-0.739 0.294-0.253-0.112-0.333-0.422-0.189-0.694 0.147-0.272 0.464-0.403 0.72-0.294 0.256 0.102 0.349 0.413 0.208 0.694zM21.171 19.338c0.275 3.043-2.963 5.885-7.235 6.339s-7.958-1.638-8.24-4.678 2.96-5.882 7.235-6.336c4.275-0.461 7.965 1.635 8.24 4.675zM14.365 17.002c-2.035-0.573-4.33 0.525-5.213 2.467-0.899 1.981-0.032 4.179 2.026 4.902 2.125 0.746 4.634-0.397 5.507-2.534 0.858-2.090-0.214-4.243-2.32-4.835zM12.339 20.208c-0.662-0.301-1.517 0.010-1.926 0.704-0.413 0.698-0.221 1.53 0.438 1.853 0.669 0.33 1.549 0.016 1.965-0.698 0.403-0.726 0.189-1.549-0.477-1.859zM31.68 10.179v11.648c0 0.288-0.003 0.678-0.006 1.152-0.006 0.499-0.010 0.704-0.013 0.941-0.013 0.704-0.058 1.414-0.179 2.051-0.131 0.694-0.31 1.322-0.627 1.955-0.323 0.637-0.768 1.19-1.248 1.683-0.493 0.48-1.043 0.925-1.683 1.248-0.63 0.32-1.261 0.496-1.955 0.627-0.637 0.118-1.347 0.166-2.051 0.179-0.237 0.003-0.442 0.006-0.941 0.013-0.474 0.003-0.864 0.006-1.152 0.006-1.462 0-10.189 0-11.648 0-0.288 0-0.678-0.003-1.152-0.006-0.499-0.006-0.704-0.010-0.941-0.013-0.704-0.013-1.414-0.058-2.051-0.179-0.694-0.131-1.322-0.31-1.955-0.627-0.637-0.323-1.19-0.768-1.683-1.248-0.48-0.493-0.925-1.043-1.248-1.683-0.32-0.63-0.496-1.261-0.627-1.955-0.118-0.637-0.166-1.347-0.179-2.051-0.003-0.237-0.006-0.442-0.013-0.941-0.003-0.474-0.006-0.864-0.006-1.152v-11.648c0-0.288 0.003-0.678 0.006-1.155 0.006-0.499 0.010-0.704 0.013-0.941 0.013-0.704 0.058-1.414 0.179-2.051 0.131-0.694 0.31-1.322 0.627-1.955 0.323-0.637 0.768-1.19 1.248-1.683 0.493-0.48 1.043-0.925 1.683-1.248 0.63-0.32 1.261-0.496 1.955-0.627 0.637-0.118 1.347-0.166 2.051-0.179 0.237-0.003 0.442-0.006 0.941-0.013 0.474-0.003 0.864-0.006 1.152-0.006 1.462 0 10.189 0 11.648 0 0.288 0 0.678 0.003 1.155 0.006 0.499 0.006 0.704 0.010 0.941 0.013 0.704 0.013 1.414 0.058 2.051 0.179 0.694 0.131 1.322 0.31 1.955 0.627 0.637 0.323 1.19 0.768 1.683 1.248 0.48 0.493 0.925 1.043 1.248 1.683 0.32 0.63 0.496 1.261 0.627 1.955 0.118 0.637 0.166 1.347 0.179 2.051 0.003 0.237 0.006 0.442 0.013 0.941 0.003 0.477 0.006 0.867 0.003 1.155zM25.613 19.402c0-2.122-1.648-3.325-3.13-3.824-0.365-0.115-0.611-0.195-0.422-0.717 0.41-1.123 0.454-2.096 0.006-2.787-0.838-1.299-3.13-1.229-5.757-0.035 0 0-0.822 0.394-0.611-0.32 0.403-1.408 0.342-2.592-0.285-3.274-1.424-1.546-5.216 0.058-8.464 3.584-2.438 2.65-3.853 5.446-3.853 7.866 0 4.63 5.472 7.443 10.826 7.443 7.018 0 11.69-4.422 11.69-7.936zM23.619 12.618c-0.144 0.483 0.102 1.005 0.547 1.165 0.448 0.157 0.925-0.109 1.069-0.595 0.352-1.184 0.131-2.538-0.694-3.533-0.822-0.992-2.042-1.37-3.168-1.11-0.461 0.106-0.752 0.598-0.653 1.098 0.099 0.496 0.55 0.819 1.008 0.707v0c0.55-0.125 1.146 0.058 1.549 0.541 0.406 0.49 0.512 1.149 0.342 1.728v0zM27.142 7.11c-1.693-2.038-4.195-2.819-6.502-2.285v0c-0.534 0.125-0.874 0.694-0.758 1.274 0.112 0.579 0.64 0.95 1.174 0.822 1.642-0.378 3.418 0.179 4.624 1.622 1.203 1.45 1.533 3.424 1.018 5.155v0c-0.17 0.563 0.115 1.168 0.637 1.35 0.518 0.182 1.078-0.125 1.245-0.688v-0.003c0.717-2.438 0.256-5.216-1.437-7.248z"></path>
</symbol>
<symbol id="weibo" viewBox="0 0 32 32">
<title>weibo</title>
<path d="M13.444 28.063c-5.3 0.525-9.875-1.875-10.219-5.35-0.344-3.481 3.675-6.719 8.969-7.244 5.3-0.525 9.875 1.875 10.213 5.35 0.35 3.481-3.669 6.725-8.963 7.244zM24.038 16.519c-0.45-0.137-0.762-0.225-0.525-0.819 0.512-1.287 0.563-2.394 0.006-3.188-1.038-1.481-3.881-1.406-7.137-0.037 0 0-1.025 0.444-0.762-0.363 0.5-1.613 0.425-2.956-0.356-3.738-1.769-1.769-6.469 0.069-10.5 4.1-3.013 3.006-4.763 6.213-4.763 8.981 0 5.288 6.787 8.506 13.425 8.506 8.7 0 14.494-5.056 14.494-9.069 0-2.431-2.044-3.806-3.881-4.375z"></path>
<path d="M29.819 6.831c-2.1-2.331-5.2-3.219-8.063-2.612v0c-0.663 0.144-1.081 0.794-0.938 1.45 0.144 0.662 0.788 1.081 1.45 0.938 2.038-0.431 4.238 0.2 5.731 1.856s1.9 3.912 1.256 5.888v0c-0.206 0.644 0.144 1.331 0.788 1.544 0.644 0.206 1.331-0.144 1.544-0.787v-0.006c0.9-2.762 0.331-5.938-1.769-8.269z"></path>
<path d="M26.587 9.75c-1.025-1.137-2.538-1.569-3.925-1.269-0.569 0.119-0.931 0.688-0.813 1.256 0.125 0.569 0.688 0.931 1.25 0.806v0c0.681-0.144 1.419 0.069 1.919 0.619 0.5 0.556 0.637 1.313 0.419 1.975v0c-0.175 0.55 0.125 1.15 0.681 1.331 0.556 0.175 1.15-0.125 1.331-0.681 0.438-1.356 0.163-2.906-0.863-4.037z"></path>
<path d="M13.738 21.769c-0.188 0.319-0.594 0.469-0.912 0.337-0.319-0.125-0.412-0.488-0.231-0.794 0.188-0.306 0.581-0.456 0.894-0.337 0.313 0.113 0.425 0.469 0.25 0.794zM12.044 23.931c-0.512 0.819-1.613 1.175-2.438 0.8-0.813-0.369-1.056-1.319-0.544-2.119 0.506-0.794 1.569-1.15 2.387-0.806 0.831 0.356 1.1 1.3 0.594 2.125zM13.969 18.144c-2.519-0.656-5.369 0.6-6.463 2.819-1.119 2.262-0.037 4.781 2.506 5.606 2.637 0.85 5.75-0.456 6.831-2.894 1.069-2.394-0.262-4.85-2.875-5.531z"></path>
</symbol>
</defs>
</svg>
